#N canvas 234 234 496 260 12;
#X obj 50 45 inlet~;
#X obj 150 45 inlet~;
#X text 101 44 x1;
#X text 201 44 y1;
#X obj 50 108 expr~ $v1 * $v3 + $v2 * $v4;
#X obj 50 175 outlet~;
#X obj 250 45 inlet~;
#X obj 360 45 inlet~;
#X text 301 44 x2;
#X text 411 44 y2;
#X connect 0 0 4 0;
#X connect 1 0 4 1;
#X connect 4 0 5 0;
#X connect 6 0 4 2;
#X connect 7 0 4 3;
