#N canvas 212 0 1582 1028 12;
#X text 418 672 top-left;
#X text 1027 672 top-right;
#X text 115 672 bottom-left;
#X text 731 672 bottom-right;
#X text 351 82 x;
#X text 744 82 y;
#X text 1132 200 based on Raouf Touti's explanations and code on https://rtouti.github.io/graphics/perlin-noise-algorithm
;
#X obj 693 83 inlet~;
#X obj 300 83 inlet~;
#X text 1160 82 persistance;
#X obj 300 187 wrap~;
#X obj 455 188 expr~ $v1 & 255;
#X text 307 110 multiply by octave factor;
#X obj 109 648 perlin.2d~-dotproduct;
#X text 308 167 xf: 0..1;
#X text 460 168 X: int 0..255;
#X obj 692 187 wrap~;
#X obj 872 188 expr~ $v1 & 255;
#X text 700 167 yf: 0..1;
#X text 877 168 Y: int 0..255;
#X obj 692 749 perlin.2d~-ease;
#X obj 1018 295 +~ 1;
#X obj 311 316 tabread~ \$2;
#X text 818 751 FIXME: ease with table?;
#X obj 311 339 +~;
#X obj 206 472 tabread~ \$2;
#X obj 509 449 +~ 1;
#X obj 509 472 tabread~ \$2;
#X obj 1018 318 tabread~ \$2;
#X obj 509 496 perlin.2d~-getvector \$2;
#X obj 819 472 tabread~ \$2;
#X obj 999 341 +~;
#X obj 1119 449 +~ 1;
#X obj 1119 472 tabread~ \$2;
#X obj 412 648 perlin.2d~-dotproduct;
#X obj 206 496 perlin.2d~-getvector \$2;
#X obj 819 496 perlin.2d~-getvector \$2;
#X obj 1119 496 perlin.2d~-getvector \$2;
#X obj 722 648 perlin.2d~-dotproduct;
#X obj 1022 648 perlin.2d~-dotproduct;
#X obj 722 221 -~ 1;
#X obj 330 221 -~ 1;
#X obj 460 862 perlin.2d~-lerp;
#X obj 510 792 perlin.2d~-lerp;
#X obj 299 813 perlin.2d~-ease;
#X obj 919 792 perlin.2d~-lerp;
#X obj 460 902 expr~ $v1 * $v2;
#X obj 460 940 outlet~;
#X obj 1107 933 outlet~;
#X text 1169 933 amplitude outlet;
#X obj 1108 160 expr~ pow($v1 \, \$1);
#X obj 1108 83 inlet~;
#X obj 693 131 expr~ $v1 * (1 << \$1);
#X obj 300 131 expr~ $v1 * (1 << \$1);
#X text 34 84 args: count \, permutation table name, f 36;
#X connect 7 0 52 0;
#X connect 8 0 53 0;
#X connect 10 0 13 0;
#X connect 10 0 34 0;
#X connect 10 0 41 0;
#X connect 10 0 44 0;
#X connect 11 0 22 0;
#X connect 11 0 21 0;
#X connect 13 0 43 1;
#X connect 16 0 40 0;
#X connect 16 0 13 1;
#X connect 16 0 38 1;
#X connect 16 0 20 0;
#X connect 17 0 24 1;
#X connect 17 0 31 0;
#X connect 20 0 43 0;
#X connect 20 0 45 0;
#X connect 21 0 28 0;
#X connect 22 0 24 0;
#X connect 24 0 25 0;
#X connect 24 0 26 0;
#X connect 25 0 35 0;
#X connect 26 0 27 0;
#X connect 27 0 29 0;
#X connect 28 0 31 1;
#X connect 29 0 34 2;
#X connect 29 1 34 3;
#X connect 30 0 36 0;
#X connect 31 0 30 0;
#X connect 31 0 32 0;
#X connect 32 0 33 0;
#X connect 33 0 37 0;
#X connect 34 0 43 2;
#X connect 35 0 13 2;
#X connect 35 1 13 3;
#X connect 36 0 38 2;
#X connect 36 1 38 3;
#X connect 37 0 39 2;
#X connect 37 1 39 3;
#X connect 38 0 45 1;
#X connect 39 0 45 2;
#X connect 40 0 34 1;
#X connect 40 0 39 1;
#X connect 41 0 38 0;
#X connect 41 0 39 0;
#X connect 42 0 46 0;
#X connect 43 0 42 1;
#X connect 44 0 42 0;
#X connect 45 0 42 2;
#X connect 46 0 47 0;
#X connect 50 0 46 1;
#X connect 50 0 48 0;
#X connect 51 0 50 0;
#X connect 52 0 16 0;
#X connect 52 0 17 0;
#X connect 53 0 10 0;
#X connect 53 0 11 0;
