#N canvas 1041 333 365 369 12;
#X obj 44 46 inlet~;
#X obj 44 102 tabread~ \$1;
#X obj 44 142 expr~ $v1 & 3;
#X text 145 142 % 4;
#X obj 194 318 outlet~;
#X obj 44 318 outlet~;
#X obj 44 214 *~ 2;
#X obj 44 238 -~ 1;
#X obj 193 238 -~ 1;
#X obj 193 190 expr~ $v1 & 2;
#X obj 44 190 expr~ $v1 & 1;
#X connect 0 0 1 0;
#X connect 1 0 2 0;
#X connect 2 0 10 0;
#X connect 2 0 9 0;
#X connect 6 0 7 0;
#X connect 7 0 5 0;
#X connect 8 0 4 0;
#X connect 9 0 8 0;
#X connect 10 0 6 0;
